<?xml version="1.0" standalone="no"?>
<!DOCTYPE svg PUBLIC "-//W3C//DTD SVG 1.1//EN" "http://www.w3.org/Graphics/SVG/1.1/DTD/svg11.dtd" >
<svg xmlns="http://www.w3.org/2000/svg">
<metadata>Generated by IcoMoon</metadata>
<defs>
<font id="icomoon" horiz-adv-x="1024">
<font-face units-per-em="1024" ascent="960" descent="-64" />
<missing-glyph horiz-adv-x="1024" />
<glyph unicode="&#x20;" horiz-adv-x="512" d="" />
<glyph unicode="&#xe900;" glyph-name="cart" d="M71.804 835.156h111.088c6.61-1.487 30.329-8.589 31.39-34.054 0.040-0.955 0.146-1.904 0.318-2.844l90.089-490.679c0.21-1.141 0.516-2.262 0.915-3.35 0.675-1.842 7.025-18.476 21.846-35.253 20.613-23.332 47.542-35.666 77.875-35.666h513.699c11.304 0 20.467 9.163 20.467 20.466s-9.163 20.466-20.467 20.466h-513.699c-40.031 0-57.431 35.117-60.753 42.788l-22.927 124.877h542.087c63.466 0 95.427 60.233 96.757 62.797 0.372 0.716 0.701 1.454 0.985 2.209l61.337 162.92c0.065 0.171 0.126 0.344 0.186 0.517 8.918 25.759 3.555 44.241-2.514 55.209-13.824 24.983-41.679 32.040-44.809 32.762-1.509 0.348-3.053 0.524-4.602 0.524h-699.628c-2.73 0-5.33-0.545-7.712-1.514l-8.63 47.001c-2.869 48.49-44.918 67.97-66.975 71.499-1.069 0.171-2.151 0.257-3.234 0.257h-113.089c-11.303 0-20.467-9.163-20.467-20.466s9.164-20.466 20.467-20.466zM271.444 717.913h696.716c4.606-1.577 12.95-5.585 16.588-12.323 2.858-5.294 2.74-12.564-0.351-21.612l-60.705-161.241c-3.335-5.728-24.748-39.899-59.961-39.899h-546.284c-1.114 0-2.199-0.114-3.266-0.284l-43.216 235.383c0.16-0.003 0.316-0.024 0.478-0.024zM416.252 196.399c-39.714 0-72.024-32.309-72.024-72.021s32.31-72.021 72.024-72.021c39.715 0 72.024 32.309 72.024 72.021s-32.309 72.021-72.024 72.021zM416.252 97.358c-14.899 0-27.020 12.121-27.020 27.019s12.122 27.019 27.020 27.019c14.9 0 27.022-12.121 27.022-27.019s-12.122-27.019-27.022-27.019zM848.652 196.399c-39.714 0-72.023-32.309-72.023-72.021s32.309-72.021 72.023-72.021 72.024 32.309 72.024 72.021-32.311 72.021-72.024 72.021zM848.652 97.358c-14.899 0-27.019 12.121-27.019 27.019s12.122 27.019 27.019 27.019c14.9 0 27.020-12.121 27.020-27.019s-12.122-27.019-27.020-27.019z" />
<glyph unicode="&#xe901;" glyph-name="envelope" d="M854.215 738.736h-684.431c-45.947 0-83.343-37.396-83.343-83.37v-414.76c0-45.947 37.396-83.356 83.343-83.356h684.444c45.947 0 83.343 37.396 83.343 83.356v414.773c-0.013 45.96-37.409 83.356-83.356 83.356zM854.215 685.076c3.923 0 7.66-0.811 11.091-2.208l-344.795-270.004-348 272.211h681.705zM883.898 240.607c0-0.598-0.146-1.157-0.173-1.755l-232.408 163.84c-8.086 5.705-19.23 3.75-24.922-4.309s-3.764-19.23 4.309-24.922l229.615-161.898c-1.968-0.412-4.003-0.652-6.104-0.652h-671.318l230.546 162.55c8.072 5.692 10.001 16.863 4.309 24.922-5.705 8.059-16.849 10.014-24.935 4.309l-249.244-175.716c-2.141 4.109-3.471 8.684-3.471 13.631v414.773c0 2.979 0.585 5.812 1.396 8.538l356.95-279.22c6.476-5.067 14.256-7.594 22.049-7.594 7.78 0 15.573 2.527 22.049 7.594l341.338 267.304v-411.395z" />
<glyph unicode="&#xe902;" glyph-name="info" horiz-adv-x="1029" d="M512 960c-282.4 0-512-228.8-512-512 0-282.4 228.8-512 512-512 282.4 0 512 228.8 512 512 0 282.4-228.8 512-512 512zM808 152.8c-79.2-79.2-184-122.4-295.2-122.4-112 0-216.8 43.2-295.2 122.4-80 78.4-123.2 183.2-123.2 295.2s43.2 216.8 122.4 295.2c79.2 79.2 184 122.4 295.2 122.4 112 0 216.8-43.2 295.2-122.4 79.2-79.2 122.4-184 122.4-295.2s-43.2-216.8-121.6-295.2zM592.8 276.8c-3.2-1.6-7.2-4-10.4-6.4-8.8-6.4-17.6-12.8-27.2-18.4-4.8-3.2-11.2-4.8-17.6-4.8-7.2-0.8-12.8 8-11.2 14.4 6.4 28 12.8 56.8 20 84.8 12.8 48.8 25.6 96.8 38.4 144.8 3.2 12 4 24 1.6 35.2-1.6 9.6-5.6 17.6-15.2 20.8-8 3.2-16 2.4-23.2-0.8-12.8-6.4-25.6-12-37.6-20-27.2-19.2-53.6-39.2-80-58.4-6.4-4.8-12.8-9.6-19.2-15.2 2.4-4.8 4.8-8.8 8-12.8 1.6-2.4 6.4-3.2 8.8-1.6 7.2 5.6 15.2 11.2 23.2 16 9.6 5.6 19.2 10.4 28.8 14.4 6.4 2.4 14.4-0.8 14.4-5.6 0.8-4.8 0.8-9.6 0-13.6-9.6-40.8-20-81.6-29.6-122.4-7.2-31.2-14.4-62.4-20.8-94.4-2.4-12.8 0.8-25.6 9.6-36 8.8-11.2 24.8-16 38.4-10.4 24.8 10.4 47.2 24.8 68.8 39.2 16 10.4 32 21.6 48.8 32.8-2.4 4.8-4 8.8-6.4 12.8-3.2 6.4-6.4 8-10.4 5.6zM592 708.8c-8.8 2.4-18.4 2.4-27.2-1.6-22.4-9.6-30.4-28-32.8-49.6 0-11.2 2.4-20 8.8-28 8.8-11.2 20.8-15.2 34.4-14.4 12 0.8 22.4 5.6 30.4 13.6 16 16 21.6 34.4 13.6 56-4.8 13.6-14.4 20.8-27.2 24z" />
<glyph unicode="&#xe903;" glyph-name="lamp" d="M706.422 812.762c-57.442 53.908-132.561 81.303-212.098 76.001-144.049-8.837-260.704-129.026-265.121-273.074-3.535-95.443 41.536-185.584 119.306-240.377 2.652-4.419 14.141-24.745 47.722-107.814 9.722-24.745 33.582-40.653 60.978-40.653 0 0 0 0 0 0h111.35c26.511 0 50.373 15.907 60.978 40.653 34.465 84.838 45.955 104.281 48.606 108.7 74.235 53.025 118.42 139.63 118.42 230.655-0.885 76.884-33.582 152.003-90.142 205.91zM649.863 409.777c-6.188-4.419-15.023-10.605-62.745-127.26-3.535-7.954-10.605-13.257-19.442-13.257h-111.35c0 0 0 0 0 0-8.837 0-16.791 5.302-19.442 13.257-46.837 115.769-55.675 121.956-61.862 126.374-66.281 46.837-104.281 123.723-101.631 205.028 4.419 121.956 102.513 223.586 223.586 230.655 5.302 0 10.605 0.885 15.023 0.885 60.978 0 119.306-22.976 163.492-64.513 48.606-45.955 75.117-107.814 75.117-174.096 0.885-78.651-37.117-152.003-100.746-197.074zM610.979 217.123h-197.074c-12.372 0-22.095-9.722-22.095-22.095s9.722-22.095 22.095-22.095h197.074c12.372 0 22.095 9.722 22.095 22.095s-9.722 22.095-22.095 22.095zM601.258 164.099h-178.515c-12.372 0-22.095-9.722-22.095-22.095s9.722-22.095 22.095-22.095h178.515c12.372 0 22.095 9.722 22.095 22.095s-9.722 22.095-22.095 22.095zM567.675 111.957h-111.35c-12.372 0-22.095-9.722-22.095-22.095s9.722-22.095 22.095-22.095h111.35c12.372 0 22.095 9.722 22.095 22.095s-9.722 22.095-22.095 22.095zM473.999 753.551c-65.396-15.023-115.769-66.281-129.026-131.676-2.652-12.372 5.302-23.861 16.791-26.511 1.767 0 2.652-0.885 4.419-0.885 10.605 0 19.442 7.069 21.21 17.675 9.722 48.606 47.722 86.606 95.443 97.211 11.489 2.652 19.442 14.141 16.791 26.511s-13.257 20.326-25.629 17.675z" />
<glyph unicode="&#xe904;" glyph-name="member" d="M1006.662 572.433c0 41.177-33.23 74.407-74.407 74.407-40.816 0-74.407-33.592-74.407-74.407 0-6.863 1.084-13.364 2.89-19.505-10.114-3.251-18.421-7.946-21.672-10.114l-135.089-79.825-117.751 171.208c-5.057 8.669-14.087 19.866-26.729 29.98 14.448 14.809 23.117 35.036 23.117 57.069 0 45.15-36.842 81.992-81.992 81.992s-81.631-37.204-81.631-82.353c0-22.033 8.669-42.26 23.117-57.069-12.281-9.752-21.672-20.95-26.729-29.98l-117.751-171.208-135.089 79.825c-0.722 0.361-1.445 1.084-2.528 1.445 3.612 8.669 5.779 18.421 5.779 28.174 0 41.177-33.23 74.407-74.407 74.407s-74.046-33.23-74.046-74.046c0-33.23 22.033-61.043 52.013-70.795-0.361-5.057-0.722-10.114-0.722-15.532v-167.958c0-15.17 12.281-27.812 27.812-27.812s27.812 12.281 27.812 27.812v168.319c0 6.502 0.361 10.836 1.084 13.364 2.528-0.722 5.418-2.167 7.585-3.612 0.361-0.361 1.084-0.722 1.445-0.722l157.844-93.189c12.642-7.224 28.535-3.973 36.842 8.308l132.921 193.603c0.361 0.722 1.084 1.445 1.445 2.167 0 0.361 14.087 23.117 37.204 24.2 0 0 0.361 0 0.361 0 0.361 0 0.722 0 1.084 0 23.478-1.084 37.204-24.2 37.204-24.2 0.361-0.722 0.722-1.445 1.445-2.167l132.921-193.603c8.308-11.92 24.2-15.532 36.842-8.308l157.844 93.189c0.361 0.361 0.722 0.722 1.084 0.722 2.167 1.445 5.057 2.89 7.585 3.612 0.722-2.528 1.084-6.863 1.084-13.726v-229.723h-781.635c-15.17 0-27.812-12.281-27.812-27.812v-110.166c0-15.17 12.281-27.812 27.812-27.812h809.086c15.17 0 27.812 12.281 27.812 27.812s-12.281 27.812-27.812 27.812h-781.274v54.902h781.274c15.17 0 27.812 12.281 27.812 27.812v257.174c0 4.334 0 8.308-0.361 12.281 40.454-0.361 73.685 32.869 73.685 74.046zM91.745 591.577c10.475 0 19.144-8.669 19.144-19.144s-8.669-19.144-19.144-19.144-19.144 8.669-19.144 19.144 8.669 19.144 19.144 19.144zM500.983 747.615c14.809 0 26.729-11.92 26.729-26.729s-11.92-26.729-26.729-26.729-26.729 11.92-26.729 26.729 12.281 26.729 26.729 26.729zM932.255 552.928c-10.475 0-19.144 8.669-19.144 19.144s8.669 19.144 19.144 19.144c10.475 0 19.144-8.669 19.144-19.144s-8.669-19.144-19.144-19.144z" />
<glyph unicode="&#xe905;" glyph-name="scan" d="M140.7 725.913c0 51.033 41.371 92.404 92.404 92.404h167.436v40.375h-176.809c-68.038 0-123.194-55.156-123.194-123.194v-177.975h40.162v168.39zM879.936 725.913v-168.39h41.9v177.975c0 68.038-55.156 123.194-123.194 123.194h-179.505v-40.375h168.395c51.033 0 92.404-41.37 92.404-92.404zM141.368 170.087v168.39h-40.162v-177.975c0-68.038 55.156-123.194 123.194-123.194h176.808v40.375h-167.436c-51.034 0-92.404 41.37-92.404 92.404zM880.604 170.087c0-51.033-41.371-92.404-92.404-92.404h-168.395v-40.375h179.505c68.038 0 123.194 55.156 123.194 123.194v177.975h-41.9v-168.39zM926.696 463.561h-831.018c-12.18 0-22.052-9.873-22.052-22.052s9.873-22.052 22.052-22.052h831.018c12.18 0 22.052 9.873 22.052 22.052s-9.873 22.052-22.052 22.052z" />
<glyph unicode="&#xe906;" glyph-name="setting" d="M848.203 335.362c61.767 0 111.993 50.254 111.993 111.993 0 61.767-50.226 111.995-111.993 111.995h-19.414c-3.937 11.183-8.448 22.119-13.478 32.701l13.67 13.698c21.081 21.080 32.702 49.216 32.702 79.183 0 29.995-11.621 58.103-32.702 79.184-21.080 21.11-49.216 32.703-79.184 32.703-29.97 0-58.105-11.594-79.182-32.703l-13.67-13.671c-10.611 5.033-21.521 9.544-32.731 13.481v19.413c0 61.766-50.229 111.994-111.995 111.994-61.764 0-111.993-50.228-111.993-111.994v-19.413c-11.212-3.937-22.123-8.448-32.732-13.481l-13.671 13.671c-21.077 21.11-49.212 32.703-79.183 32.703-29.966 0-58.099-11.594-79.184-32.703-21.076-21.080-32.701-49.189-32.701-79.184 0-29.967 11.625-58.103 32.701-79.183l13.671-13.67c-5.029-10.61-9.541-21.519-13.478-32.729h-19.414c-61.764 0-111.993-50.228-111.993-111.995 0-61.739 50.229-111.993 111.993-111.993h19.414c3.937-11.212 8.449-22.121 13.478-32.729l-13.671-13.671c-21.076-21.081-32.701-49.191-32.701-79.185 0-29.996 11.625-58.103 32.701-79.183 21.085-21.078 49.218-32.703 79.184-32.703 29.971 0 58.106 11.625 79.183 32.703l13.671 13.67c10.61-5.031 21.52-9.512 32.732-13.479v-19.416c0-61.736 50.229-111.993 111.993-111.993 61.766 0 111.995 50.257 111.995 111.993v19.416c11.21 3.967 22.12 8.448 32.731 13.505l13.67-13.695c21.077-21.078 49.212-32.703 79.182-32.703 29.967 0 58.104 11.625 79.184 32.703 21.081 21.080 32.702 49.187 32.702 79.183 0 29.994-11.621 58.104-32.702 79.185l-13.67 13.698c5.030 10.608 9.541 21.519 13.478 32.702h19.414zM789.387 249.371c10.528-10.5 16.297-24.556 16.297-39.594 0-15.011-5.769-29.067-16.297-39.591-21.050-21.028-58.129-21.028-79.181 0l-43.119 43.145-18.484-10.363c-18.647-10.417-38.826-18.756-60.018-24.769l-20.369-5.772v-61.057c0-30.867-25.128-55.993-55.999-55.993s-55.998 25.126-55.998 55.993v61.057l-20.367 5.772c-21.218 6.042-41.426 14.353-60.016 24.769l-18.485 10.336-43.121-43.118c-21.053-21.028-58.129-21.028-79.183 0-10.527 10.524-16.294 24.58-16.294 39.591 0 15.038 5.767 29.094 16.294 39.594l43.118 43.116-10.359 18.485c-10.392 18.591-18.705 38.77-24.746 60.041l-5.773 20.345h-61.054c-30.869 0-55.995 25.128-55.995 55.996 0 30.87 25.125 55.998 55.995 55.998h61.054l5.773 20.37c6.041 21.245 14.354 41.45 24.746 60.016l10.359 18.483-43.118 43.119c-10.527 10.528-16.294 24.581-16.294 39.592 0 15.039 5.767 29.094 16.294 39.592 21.054 21.028 58.13 21.028 79.183 0l43.121-43.118 18.485 10.361c18.59 10.39 38.798 18.731 60.016 24.746l20.367 5.77v61.056c0 30.895 25.128 55.996 55.999 55.996s55.999-25.101 55.999-55.996v-61.056l20.369-5.77c21.192-6.016 41.371-14.328 60.018-24.772l18.484-10.335 43.119 43.118c21.052 21.028 58.131 21.028 79.181 0 10.528-10.498 16.297-24.552 16.297-39.592 0-15.011-5.769-29.064-16.297-39.592l-43.091-43.119 10.308-18.483c10.448-18.674 18.783-38.881 24.771-60.016l5.773-20.37h61.054c30.87 0 55.997-25.128 55.997-55.999 0-30.869-25.128-55.996-55.997-55.996h-61.054l-5.773-20.345c-5.988-21.161-14.323-41.342-24.771-60.041l-10.308-18.485 43.091-43.118zM512.218 615.347c-92.637 0-167.991-75.355-167.991-167.992 0-92.635 75.354-167.991 167.991-167.991s167.991 75.356 167.991 167.991c0 92.637-75.354 167.992-167.991 167.992zM512.218 335.362c-61.764 0-111.993 50.254-111.993 111.993 0 61.767 50.229 111.995 111.993 111.995 61.766 0 111.995-50.228 111.995-111.995 0-61.739-50.228-111.993-111.995-111.993z" />
<glyph unicode="&#xe907;" glyph-name="favor-hollow" d="M512.959 767.248c-27.373 16.885-301.089 183.683-449.967-69.244-139.696-391.755 449.384-642.125 449.384-642.125s579.541 232.631 451.619 640.761c-111.466 241.894-406.163 114.499-451.036 70.608l-0.583-48.607c7.212 1.672 289.425 195.111 409.152-22.001 114.61-399.942-409.152-597.099-409.152-597.099s-549.686 242.012-404.377 597.099c151.449 217.964 398.834 21.489 404.377 22.001l0.583 48.607z" />
<glyph unicode="&#xe908;" glyph-name="favor" d="M821.76 232.96c-104.96-107.52-225.28-215.040-271.36-256-10.24-10.24-23.040-15.36-38.4-15.36-12.8 0-25.6 5.12-38.4 15.36-120.32 107.52-409.6 376.32-450.56 483.84-58.88 156.16 10.24 335.36 158.72 399.36 115.2 48.64 245.76 15.36 327.68-84.48 0-2.56 5.12-2.56 5.12 0 81.92 99.84 215.040 133.12 327.68 84.48 148.48-64 220.16-243.2 158.72-399.36-12.8-33.28-48.64-84.48-112.64-153.6z" />
<glyph unicode="&#xe909;" glyph-name="order-loop" d="M873.439 654.919c-55.271 55.271-128.756 85.71-206.919 85.71h-307.108v58.746c0 18.762-12.896 25.785-28.656 15.605l-141.383-91.312c-15.76-10.177-15.606-26.591 0.342-36.471l140.7-87.165c15.95-9.881 28.997-2.614 28.997 16.147v58.458h307.107c124.969 0 226.638-101.669 226.638-226.638 0-20.663-2.774-41.126-8.244-60.819-4.878-17.558 5.401-35.745 22.959-40.623 2.955-0.821 5.926-1.213 8.851-1.213 14.451 0 27.715 9.569 31.773 24.172 7.069 25.444 10.653 51.85 10.653 78.483 0.001 78.164-30.437 151.65-85.708 206.919zM818.958 208.803l-140.7 87.165c-15.95 9.881-28.997 2.614-28.997-16.147v-58.458h-331.6c-124.967 0-226.638 101.668-226.638 226.638 0 43.791 12.502 86.275 36.153 122.86 9.894 15.303 5.508 35.73-9.794 45.622-15.305 9.895-35.73 5.508-45.623-9.795-30.569-47.282-46.726-102.156-46.726-158.687 0-78.163 30.439-151.649 85.709-206.919s128.756-85.709 206.919-85.709h331.599v-58.746c0-18.762 12.896-25.785 28.656-15.605l141.385 91.311c15.759 10.177 15.606 26.591-0.342 36.471z" />
<glyph unicode="&#xe90a;" glyph-name="pencil" d="M830.968 824.115c-42.603 42.521-98.679 66.777-153.945 66.777-46.609 0-89.575-17.276-120.892-48.571l-126.048-126.94c-0.384-0.343-0.848-0.606-1.215-0.97-0.202-0.202-0.322-0.485-0.526-0.689l0.042-0.039-267.494-269.397c-12.299-12.238-21.259-27.49-26.216-44.12l-60.809-220.217c-0.082-0.565-4.046-17.883-4.046-26.703 0-50.006 40.641-90.545 90.749-90.545 9.973 0 29.272 4.733 29.958 4.854l219.531 57.655c16.648 4.977 31.821 13.958 44.14 26.298l395.179 398.135c71.937 71.915 63.843 192.441-18.408 274.472zM484.521 275.030c-2.146 23.385-8.762 46.283-18.633 68.009l244.797 244.656c14.969-47.256 7.281-96.696-25.489-129.51-0.245-0.202-0.488-0.322-0.648-0.526l0.322-0.322-200.108-201.607c0 6.433 0.322 12.743-0.243 19.3zM452.881 366.627c-9.648 15.902-20.615 31.193-34.229 44.748-15.839 15.817-33.984 28.2-52.919 38.617l246.799 246.699c19.337-8.599 37.95-20.837 54.336-37.202 13.959-13.958 24.803-29.574 33.136-45.82l-247.122-247.041zM341.338 462.231c-23.972 9.669-49.097 15.173-74.243 15.495l199.461 200.879c30.508 29.778 75.011 38.354 118.788 27.49l-244.006-243.864zM177.741 117.725c-2.831-0.648-11.59-2.873-17.558-3.278-21.303 0.243-38.578 17.519-38.578 38.8 0.302 4.371 2.063 11.814 2.628 14.566l27.25 98.718c29.594 0.809 61.456-10.68 86.501-35.764 25.427-25.409 37.383-57.856 36.068-87.755l-96.312-25.288zM299.603 149.729c-0.626 34.715-14.767 70.842-43.292 99.325-26.985 27.028-62.287 42.564-97.506 43.981l25.793 93.339c1.882 6.231 5.563 12.338 10.114 17.72 51.93 37.161 131.815 26.216 187.324-29.292 58.687-58.666 67.769-144.6 22.556-195.902-3.015-1.537-6.048-3.074-9.305-4.044l-95.685-25.126zM812.76 586.216l-43.614-43.937c0 5.844 0.689 11.469 0.163 17.458-4.532 50.047-27.957 98.476-65.827 136.346-42.157 42.178-98.153 66.392-153.5 66.555l42.887 43.21c21.442 21.401 51.382 33.298 84.154 33.298 41.673 0 84.477-18.835 117.329-51.648 30.912-30.827 49.359-69.123 51.949-107.861 2.428-36.172-9.467-69.348-33.54-93.422z" />
<glyph unicode="&#xe90b;" glyph-name="praise" d="M275.26 97.883c-1.27 0-2.601 0.111-4.187 0.351l-0.419 0.063-126.109-0.018c-1.651-0.266-3.114-0.396-4.472-0.396-15.511 0-28.129 12.618-28.129 28.127l0.307 405.75c0 15.515 12.622 28.133 28.136 28.133 1.039 0 2.154-0.077 3.409-0.234l0.358-0.045 118.183 0.274v1.082c104.564 10.081 184.94 95.771 187.895 201.422l0.009 0.33-0.029 0.329c-0.29 3.273-0.424 5.94-0.424 8.394 0 51.091 41.565 92.656 92.656 92.656 21.367 0 41.431-7.076 58.024-20.463 16.11-12.999 27.537-31.212 32.174-51.286l1.156-5.007 0.417 0.054c4.866-23.49 7.331-47.346 7.331-70.995 0-39.344-6.549-78.017-19.463-114.945l-2.634-7.532 196.63-0.212c1.283 0 2.631-0.115 4.247-0.363l0.316-0.048 0.32-0.013c31.594-1.241 60.347-17.926 76.915-44.63 10.591-17.066 15.4-36.7 13.91-56.78l-0.033-0.438 0.035-0.438c0.263-3.256-0.014-6.451-0.819-9.498l-0.049-0.198-73.010-322.253c-0.815-3.028-2.169-5.933-4.026-8.635l-0.221-0.322-0.176-0.35c-7.661-15.297-19.247-28.176-33.503-37.244-13.503-8.581-28.935-13.532-44.931-14.454v0.043l-475.618 0.137c-1.593-0.238-2.921-0.348-4.176-0.348zM493.397 685.201c-13.691-41.859-38.007-79.99-70.319-110.272-32.428-30.392-72.216-52.208-115.063-63.092l-4.269-1.084-0.333-356.211 446.132-0.181c1.088 0 2.271-0.089 3.618-0.271l0.754-0.102 0.755 0.1c5.381 0.717 10.436 2.56 15.023 5.478 4.651 2.954 8.534 6.848 11.446 11.442l1.543-0.866 1.767 7.364 71.493 315.561-0.228 0.067c1.447 9.031-0.372 18.32-5.253 26.188-6.331 10.209-16.838 16.71-28.623 17.895v0.148l-5.669 0.1-238.539 0.248c-15.516 0-28.134 12.621-28.134 28.134 0 4.316 0.988 8.5 2.938 12.436l1.999 4.039-0.269 0.22c12.060 23.345 20.905 48.263 26.339 74.194l0.218-0.006 1.093 4.438c0.19 0.773 4.66 19.33 4.601 54.621-0.047 27.964-5 53.090-5.211 54.146 0 0-0.069 0.355-0.069 0.36 0 20.552-16.72 37.272-37.272 37.272-19.401 0-35.388-14.892-37.124-33.843l-0.6-0.008 0.114-5.708c0.005-0.258 0.457-26.148-4.63-52.566-1.495-7.764-3.535-15.861-6.081-24.143l-0.133 0.064-2.014-6.162zM168.556 503.422l-0.329-348.827 78.931-0.034 0.264 349.036-78.866-0.175z" />
<glyph unicode="&#xe90c;" glyph-name="shuffle-loop" d="M774.4 230.4h-102.4c-12.8 0-25.6 6.4-38.4 12.8s-19.2 12.8-25.6 25.6l-76.8 128-32-44.8 64-108.8c12.8-19.2 25.6-32 44.8-44.8s38.4-19.2 57.6-19.2h102.4v-70.4l140.8 96-140.8 96v-70.4h6.4zM633.6 652.8c12.8 6.4 25.6 12.8 38.4 12.8h102.4v-70.4l140.8 96-140.8 96v-70.4h-102.4c-19.2 0-44.8-6.4-57.6-19.2-25.6-12.8-38.4-25.6-51.2-44.8l-217.6-384c-6.4-12.8-19.2-19.2-25.6-25.6-12.8-6.4-25.6-12.8-38.4-12.8h-134.4v-44.8h134.4c19.2 0 44.8 6.4 57.6 19.2 19.2 12.8 32 25.6 44.8 44.8l217.6 384c12.8 6.4 19.2 12.8 32 19.2zM320 652.8c6.4-6.4 19.2-12.8 25.6-25.6l76.8-134.4 25.6 51.2-64 108.8c-6.4 19.2-25.6 32-44.8 44.8-12.8 6.4-38.4 12.8-57.6 12.8h-134.4v-44.8h134.4c12.8 0 25.6-6.4 38.4-12.8z" />
<glyph unicode="&#xe90d;" glyph-name="single-loop" d="M926.828 378.677v-85.834c0-105.633-85.834-171.639-193.655-171.639h-442.333c-105.633 0-193.655 63.822-193.655 171.639v171.639c0 105.633 85.834 171.639 193.655 171.639h477.537l-114.431-114.431 41.82-41.82 189.257 189.257-189.257 189.257-41.82-41.82 118.826-118.826h-514.949c-121.034 0-220.060-99.031-220.060-220.060v-198.061c0-121.034 99.031-220.060 220.060-220.060h506.151c121.034 0 220.060 99.031 220.060 220.060v99.031h-57.212zM548.31 240.036h-57.212v213.465c-19.81-19.81-44.019-33.010-72.619-41.82v50.619c15.407 4.398 30.817 13.193 48.414 26.412 17.61 13.193 28.609 28.609 35.211 46.21h46.21v-294.895z" />
<glyph unicode="&#xe90e;" glyph-name="song-lists" d="M959.36 239.744c4.032-90.56-58.176-192.064-164.864-253.056-138.944-79.488-300.352-65.536-360.512 43.072-57.92 104.512 3.712 251.392 142.656 330.944 112.192 64.192 238.080 62.976 314.432 6.208v558.912c0 18.88 15.424 34.176 34.496 34.176 19.008 0 34.432-15.296 34.432-34.176v-683.008c0-1.088-0.512-1.984-0.64-3.072zM879.488 292.608c-48.128 73.024-180.032 75.584-282.624 14.208s-151.872-177.984-103.68-251.008c48.128-73.024 175.488-74.88 278.080-13.504s156.416 177.216 108.224 250.304zM718.784 652.672h-620.352c-19.008 0-34.432 15.296-34.432 34.112 0 18.88 15.424 34.176 34.432 34.176h620.288c19.008 0 34.432-15.296 34.432-34.176 0.064-18.816-15.36-34.112-34.368-34.112zM718.784 857.536h-620.352c-19.008 0-34.432 15.296-34.432 34.176s15.424 34.176 34.432 34.176h620.288c19.008 0 34.432-15.296 34.432-34.176 0.064-18.88-15.36-34.176-34.368-34.176zM98.432 516.032h379.072c19.072 0 34.496-15.296 34.496-34.112s-15.424-34.176-34.496-34.176h-379.072c-19.008 0-34.432 15.296-34.432 34.176 0 18.816 15.424 34.112 34.432 34.112zM98.432 311.168h206.784c19.008 0 34.432-15.296 34.432-34.176 0-18.816-15.424-34.176-34.432-34.176h-206.784c-19.008 0.064-34.432 15.36-34.432 34.176 0 18.88 15.424 34.176 34.432 34.176z" />
<glyph unicode="&#xe90f;" glyph-name="account" d="M919.382-0.691h-45.636c-15.424 186.435-171.329 333.001-361.746 333.001s-346.322-146.566-361.746-333.001h-45.636c13.184 179.579 142.252 326.887 312.855 367.3-86.793 36.827-147.656 122.817-147.656 223.020 0 133.76 108.422 242.183 242.183 242.183s242.183-108.422 242.183-242.183c0-100.203-60.879-186.194-147.656-223.020 170.603-40.414 299.671-187.722 312.855-367.3zM708.774 589.63c0 108.679-88.094 196.774-196.774 196.774s-196.774-88.094-196.774-196.774 88.094-196.774 196.774-196.774 196.774 88.093 196.774 196.774z" />
<glyph unicode="&#xe910;" glyph-name="back" d="M266.1 434.1l465.7-465.7c3.6-3.6 8.3-5.4 13-5.4s9.4 1.8 13 5.4c7.2 7.2 7.2 18.9 0 26l-452.7 452.8 446.9 454.5c7.1 7.3 7 18.9-0.2 26-7.3 7.1-18.9 7-26-0.2l-459.8-467.5c-7.1-7.2-7-18.8 0.1-25.9z" />
<glyph unicode="&#xe911;" glyph-name="comment" d="M1024 307.706c-1.361-2.565-3.155-4.997-3.998-7.719-18.146-59.497-52.633-85.554-115.332-85.65-131.046-0.229-262.081-0.397-393.127 0.277-20.23 0.096-35.077-5.094-49.827-19.941-75.415-75.969-152.155-150.59-228.148-225.933-5.539-5.527-9.031-13.113-13.438-19.748l-6.803 4.853c-1.794 31.56-3.889 63.085-5.31 94.633-2.047 46.54-4.72 93.080-4.937 139.632-0.096 21.361-7.538 27.996-28.105 26.491-21.012-1.529-42.241-1.036-63.29 0.096-51.369 2.649-86.818 31.488-101.28 81.027-1.204 4.13-3.263 7.983-4.913 11.969v537.684c5.539 13.908 9.958 28.442 16.906 41.615 16.725 31.753 47.070 44.734 79.256 54.548h826.172c26.648-8.923 54.439-17.195 70.49-42.289 10.645-16.629 17.303-35.835 25.72-53.885-0.036-179.212-0.036-358.436-0.036-537.66zM249.642 48.443l10.524-6.671c58.846 61.568 117.982 122.858 176.394 184.884 18.736 19.88 39.893 28.562 67.588 28.345 135.417-0.903 270.871-0.506 406.325-0.325 43.445 0.048 70.791 27.478 70.84 70.707 0.072 168.206 0.108 336.412-0.048 504.619 0 40.002-27.177 68.768-65.746 68.792-267.186 0.205-534.421 0.205-801.644 0-37.87-0.012-65.662-28.394-65.71-66.637-0.193-170.386-0.217-340.771 0.012-511.169 0.036-37.605 28.478-65.589 66.456-66.276 22.541-0.421 45.143-0.036 67.697-0.144 43.746-0.144 56.775-12.391 59.316-56.607 2.89-49.791 5.37-99.703 7.995-149.518zM260.78 578.167h507.93c9.994-35.125 6.37-40.411-26.744-40.411-151.505-0.024-303.046-0.024-454.587 0-33.017-0.012-36.714 5.467-26.599 40.411zM589.197 432.623v-39.291h-330.657v39.291h330.657zM258.348 685.408c-0.566 7.49-0.855 14.558-1.686 21.578-1.806 15.377 5.009 19.688 20.013 19.567 85.747-0.614 171.481-0.71 257.24 0.072 16.605 0.144 21.145-5.25 20.988-21.181-0.12-15.148-2.95-22.036-20.314-21.855-86.481 0.819-172.963 0.361-259.42 0.446-4.985 0-9.958 0.795-16.822 1.373z" />
<glyph unicode="&#xe912;" glyph-name="correct" d="M512.85-60.6c-279.78 0-507.374 227.589-507.374 507.363s227.589 507.363 507.374 507.363c279.78 0 507.363-227.589 507.363-507.363 0-279.761-227.588-507.363-507.363-507.363zM512.85 910.090c-255.478 0-463.326-207.807-463.326-463.249s207.827-463.249 463.326-463.249c255.478 0 463.249 207.827 463.249 463.249s-207.827 463.249-463.249 463.249zM437.442 267.766c-5.659 0-11.276 2.149-15.569 6.459l-141.070 141.070c-8.661 8.661-8.661 22.552 0 31.195s22.552 8.661 31.195 0l141.070-141.070c8.661-8.661 8.661-22.552 0-31.195-4.325-4.325-9.957-6.459-15.569-6.459zM437.411 267.793c-5.659 0-11.276 2.149-15.569 6.459-8.661 8.661-8.661 22.552 0 31.195l317.35 317.35c8.661 8.661 22.552 8.661 31.195 0s8.661-22.552 0-31.195l-317.35-317.35c-4.276-4.276-9.957-6.459-15.569-6.459z" />
<glyph unicode="&#xe913;" glyph-name="cross" d="M142.151 50.957c-6.549 0-13.098 2.499-18.094 7.498-9.988 9.993-9.984 26.19 0.009 36.178l737.145 736.781c9.994 9.988 26.192 9.984 36.178-0.009 9.988-9.994 9.984-26.192-0.008-36.179l-737.145-736.78c-4.995-4.993-11.54-7.489-18.085-7.489zM878.93 50.957c-6.545 0-13.089 2.495-18.085 7.488l-737.186 736.78c-9.994 9.988-9.998 26.186-0.010 36.179 9.988 9.994 26.186 9.998 36.179 0.010l737.186-736.78c9.994-9.988 9.999-26.186 0.010-36.179-4.995-4.998-11.546-7.498-18.094-7.498z" />
<glyph unicode="&#xe914;" glyph-name="error" d="M711.2 295.2l-152.8 152.8 152.8 152.8c5.835 5.835 9.444 13.896 9.444 22.8 0 17.808-14.436 32.244-32.244 32.244-8.904 0-16.965-3.609-22.8-9.444l-152.8-152.8-152.8 152.8c-5.835 5.835-13.896 9.444-22.8 9.444-17.808 0-32.244-14.436-32.244-32.244 0-8.904 3.609-16.965 9.444-22.8l152.8-152.8-153.6-152.8c-5.835-5.835-9.444-13.896-9.444-22.8 0-17.808 14.436-32.244 32.244-32.244 8.904 0 16.965 3.609 22.8 9.444l152.8 152.8 152.8-152.8c5.808-5.895 13.877-9.546 22.8-9.546s16.992 3.652 22.796 9.543c5.988 5.923 9.694 14.136 9.694 23.214 0 8.675-3.385 16.56-8.905 22.406zM512 960c-282.77 0-512-229.23-512-512s229.23-512 512-512c282.77 0 512 229.23 512 512-0.273 282.659-229.34 511.727-511.973 512zM512-7.2c-251.056 0.455-454.4 204.081-454.4 455.199 0 251.4 203.8 455.2 455.2 455.2s455.2-203.8 455.2-455.199c-0.455-251.498-204.439-455.2-455.999-455.2 0 0-0.001 0-0.001 0z" />
<glyph unicode="&#xe915;" glyph-name="expand" horiz-adv-x="610" d="M13.767 483.423l465.579 461.976c19.721 19.57 51.959 19.57 71.756 0l43.842-43.577c19.759-19.57 19.759-51.617 0-71.225l-385.783-382.824 385.783-382.862c19.759-19.57 19.759-51.655 0-71.225l-43.842-43.501c-19.797-19.608-52.034-19.608-71.756 0l-465.579 461.976c-19.684 19.646-19.684 51.693 0 71.263v0 0z" />
<glyph unicode="&#xe916;" glyph-name="friends" d="M428.864 362.048c-133.824 0-242.688 108.864-242.688 242.688s108.864 242.688 242.688 242.688 242.688-108.864 242.688-242.688-108.864-242.688-242.688-242.688zM428.864 815.424c-116.16 0-210.688-94.528-210.688-210.688s94.528-210.688 210.688-210.688c116.16 0 210.688 94.528 210.688 210.688s-94.528 210.688-210.688 210.688zM800.896 14.4c-8.384 0-15.36 6.464-15.936 14.912-12.736 186.56-169.216 332.736-356.096 332.736-186.944 0-343.36-146.176-356.096-332.736-0.64-8.896-8.896-15.68-17.088-14.848-8.832 0.576-15.488 8.192-14.848 17.024 13.888 203.392 184.32 362.624 388.032 362.624s374.080-159.232 387.968-362.624c0.64-8.832-6.080-16.448-14.848-17.024-0.384-0.064-0.704-0.064-1.088-0.064zM612.544 364.224c-32.96 0-64.704 6.912-94.464 20.608-8 3.712-11.456 13.184-7.808 21.248s13.312 11.52 21.248 7.872c25.472-11.712 52.736-17.664 81.088-17.664 107.2 0 194.432 87.232 194.432 194.496s-87.296 194.496-194.496 194.496c-18.176 0-36.096-2.496-53.312-7.36-8.64-2.56-17.344 2.56-19.776 11.008s2.496 17.28 11.008 19.712c20.096 5.696 40.96 8.64 62.080 8.64 124.864 0 226.432-101.568 226.432-226.496s-101.568-226.56-226.432-226.56zM958.016 41.408c-8.384 0-15.36 6.464-15.936 14.912-11.84 172.608-156.544 307.904-329.472 307.904-30.656 0-60.864-4.096-89.92-12.288-8.576-2.688-17.344 2.496-19.84 11.072-2.368 8.512 2.56 17.28 11.072 19.648 31.936 9.024 65.088 13.568 98.624 13.568 189.76 0 348.416-148.352 361.344-337.728 0.64-8.832-6.080-16.448-14.848-17.024-0.32-0.064-0.64-0.064-1.024-0.064z" />
<glyph unicode="&#xe917;" glyph-name="lock" d="M522.368 949.606c-144.154 0-252.902-114.662-252.902-266.752v-93.747h-8.192c-75.776 0-137.446-63.309-137.446-141.082v-360.525c0-77.773 61.67-141.107 137.446-141.107h524.339c75.776 0 137.446 63.334 137.446 141.107v360.525c0 77.773-61.67 141.082-137.446 141.082h-4.506c-1.203 0.435-2.458 0.563-3.712 0.768v93.005c0.051 152.038-109.594 266.726-255.027 266.726v0zM522.368 907.776c123.52 0 213.248-94.592 213.248-224.947v-92.365h-424.294v92.365c0 130.355 88.755 224.947 211.046 224.947v0zM881.28 448.026v-360.525c0-54.733-42.931-99.277-95.616-99.277h-524.365c-52.736 0-95.616 44.544-95.616 99.277v360.525c0 54.707 42.88 99.251 95.616 99.251h50.022v1.382h424.269v-1.382h50.048c52.71-0.026 95.642-44.544 95.642-99.251v0zM518.861 391.962c-33.51 0-60.672-28.006-60.672-62.566 0-23.117 12.237-43.341 30.336-54.17v-102.195c0-17.254 13.568-31.309 30.336-31.309 16.742 0 30.336 14.054 30.336 31.309v102.17c18.099 10.829 30.31 31.027 30.31 54.17-0.051 34.56-27.187 62.592-60.646 62.592v0z" />
<glyph unicode="&#xe918;" glyph-name="logo" d="M759.76 504.331c-43.949 43.949-101.247 69.684-162.749 73.459-4.008 11.104-7.612 23.171-10.674 36.622-4.454 19.574-7.754 42.090-9.46 68.855-0.416 6.531-0.738 13.315-0.958 20.372-0.213 6.844-0.331 13.947-0.347 21.321-0.025 0.003-0.049 0.006-0.074 0.010 0.020 0.187 0.050 0.371 0.072 0.559 4.86 42.591 41.697 75.613 85.847 74.349 31.111-0.89 58.26-18.992 71.987-45.162l41.499 7.974c-16.332 40.666-53.536 70.798-98.367 76.948-72.050 9.882-134.525-42.155-141.758-110.434-0.060-0.571-0.098-2.041-0.12-2.616l-0.001-5.501c0.015-4.864 0.132-12.436 0.443-21.152 0.151-4.246 0.345-8.43 0.571-12.566 2.287-41.864 8.385-78.209 18.47-110.288 0.024-0.074 0.047-0.146 0.071-0.22-22.881-2.416-45.088-7.902-66.143-16.243l-0.015-0.002-0.028-0.014c-31.609-12.528-60.62-31.504-85.386-56.271l7.859 7.032c-33.52-32.711-54.371-78.35-54.371-128.775 0-24.524 4.936-47.913 13.857-69.239 21.279-50.871 65.263-89.962 119.215-104.547 14.19-4.429 29.272-6.816 44.902-6.816 8.331 0 16.503 0.69 24.471 1.993 71.663 11.729 126.527 74.076 126.527 149.006 0 17.117-2.868 33.576-8.14 48.926-10.829 44.82-28.258 75.357-45.254 105.107-5.182 9.072-10.312 18.055-15.243 27.389 8.403-1.416 16.64-3.328 24.679-5.706 87.569-25.91 151.651-107.072 151.651-202.931 0-49.341-16.98-94.79-45.398-130.816-20.174-22.572-43.752-42.034-69.924-57.579-44.127-26.21-95.605-41.289-150.547-41.289-22.579 0-44.572 2.554-65.715 7.37-131.535 29.964-229.998 147.867-229.998 288.343 0 146.336 106.853 268.165 246.629 291.615l-5.393 40.646c-69.060-11.172-132.731-43.522-183.228-93.879-63.059-62.885-98.735-148.53-98.939-237.586-0.208-90.504 35.052-175.608 99.21-239.448 63.884-63.568 150.944-98.92 241.061-97.973 60.084 0.63 117.658 16.918 168.064 46.909 22.253 11.715 42.859 26.839 61.148 45.128 6.619 6.619 12.809 13.551 18.588 20.743 35.874 44.641 55.373 99.727 55.373 157.818 0 25.756-3.841 50.918-11.232 74.846-11.964 38.736-33.247 74.231-62.731 103.714zM422.406 522.020c0.636 0.521 1.283 1.029 1.927 1.542-0.688-0.546-1.372-1.097-2.052-1.653l0.125 0.111zM637.597 390.445c2.74-11.648 4.97-24.378 6.554-38.533-0.517-53.82-39.853-98.52-91.297-107.389-5.485-0.66-11.064-1.009-16.723-1.009-12.177 0-23.991 1.579-35.255 4.532-59.668 15.647-103.817 70.033-103.817 134.541 0 18.45 3.62 36.067 10.173 52.192 8.318 20.469 21.37 38.529 37.798 52.803 2.895 2.441 5.852 4.809 8.877 7.094 32.541 24.585 72.376 39.998 115.633 42.359 3.64-7.971 7.414-15.494 11.251-22.73 4.088-7.709 8.248-15.096 12.389-22.366 0.996-1.748 1.99-3.489 2.983-5.227 16.327-28.576 31.948-55.945 41.435-96.267z" />
<glyph unicode="&#xe919;" glyph-name="next" d="M889.6 38.4v825.6c0 17.673-14.327 32-32 32s-32-14.327-32-32v-825.6c0-17.673 14.327-32 32-32s32 14.327 32 32v0zM243.572 79.795v0l404.353 331.090c27.382 22.421 27.435 58.886 0 81.35l-404.353 331.090c-27.382 22.421-49.676 12.003-49.676-23.365v-696.799c0-35.646 22.241-45.83 49.676-23.365v0zM284.118 30.277v0c-69.12-56.596-154.222-16.896-154.222 72.883v696.799c0 89.482 85.14 129.448 154.222 72.883l404.353-331.090c58.7-48.064 58.662-132.353 0-180.386l-404.353-331.090z" />
<glyph unicode="&#xe91a;" glyph-name="note-2" d="M676.925 401.92c-52.367 0-94.945-43.069-94.945-96.010s42.578-96.010 94.945-96.010c45.957 0 84.337 33.198 93.041 77.128 1.167 2.58 1.884 5.386 1.884 8.397v446.976c0 6.185-2.806 12.042-7.598 15.913-4.792 3.891-11.080 5.448-17.162 4.096l-383.57-81.92c-9.441-2.007-16.2-10.363-16.2-20.029v-378.143c-15.34 10.772-33.915 17.183-53.985 17.183-52.347 0-94.925-43.069-94.925-96.010s42.578-96.010 94.925-96.010c52.367 0 94.945 43.069 94.945 96.010 0 2.294-0.512 4.444-0.676 6.676 0.184 1.126 0.676 2.13 0.676 3.318v307.548l342.61 73.175v-209.49c-15.36 10.793-33.915 17.203-53.965 17.203zM676.925 250.88c-29.757 0-53.985 24.699-53.985 55.050s24.228 55.050 53.985 55.050 53.965-24.699 53.965-55.050-24.207-55.050-53.965-55.050zM293.315 148.48c-29.757 0-53.965 24.699-53.965 55.050s24.207 55.050 53.965 55.050 53.985-24.699 53.985-55.050-24.228-55.050-53.985-55.050zM388.26 562.913v81.019l342.61 73.155v-80.998l-342.61-73.175z" />
<glyph unicode="&#xe91b;" glyph-name="note" d="M959.112 837.054c0 32.922-26.784 59.706-59.707 59.706-1.206 0-2.411-0.071-3.609-0.213l-517.351-61.259c-31.941-1.123-57.58-27.458-57.58-59.669v-490.211c-26.931 20.988-60.77 33.508-97.48 33.508-87.605 0-158.879-71.272-158.879-158.879s71.272-158.879 158.879-158.879 158.879 71.272 158.879 158.879c0 0.179-0.006 0.357-0.007 0.536 0.001 0.090 0.007 0.178 0.007 0.269v422.848l515.451 56.195v-258.521c-26.993 21.166-60.98 33.801-97.863 33.801-87.605 0-158.879-71.272-158.879-158.879s71.272-158.88 158.879-158.88c86.894 0 157.706 70.121 158.852 156.748 0.265 1.623 0.408 3.286 0.408 4.984v577.915zM223.384 62.558c-53.75 0-97.48 43.729-97.48 97.48s43.729 97.48 97.48 97.48 97.48-43.729 97.48-97.48-43.729-97.48-97.48-97.48zM382.262 645.453v128.52c0.641 0.036 1.28 0.091 1.919 0.167l513.533 60.807v-133.3l-515.452-56.194zM799.851 158.805c-53.75 0-97.48 43.729-97.48 97.481 0 53.75 43.729 97.48 97.48 97.48s97.481-43.729 97.481-97.48c-0.001-53.751-43.73-97.481-97.481-97.481z" />
<glyph unicode="&#xe91c;" glyph-name="option" d="M512.001 688.493c-40.157 0-72.723 32.567-72.723 72.733s32.567 72.73 72.723 72.73c40.167 0 72.721-32.565 72.721-72.73s-32.555-72.733-72.721-72.733zM512.001 377c-40.157 0-72.723 32.567-72.723 72.733s32.567 72.73 72.723 72.73c40.167 0 72.721-32.565 72.721-72.73s-32.555-72.733-72.721-72.733zM512.001 65.51c-40.157 0-72.723 32.565-72.723 72.73s32.567 72.731 72.723 72.731c40.167 0 72.721-32.565 72.721-72.731s-32.555-72.73-72.721-72.73z" />
<glyph unicode="&#xe91d;" glyph-name="player" d="M889.881 706.538c-0.368 18.683-15.6 33.709-34.383 33.709s-34.014-15.027-34.383-33.709h-0.017v-642.092h68.8v642.092h-0.015zM167.514 510.928c-18.783 0-34.015-15.027-34.382-33.71h-0.017v-412.773h68.798v412.773h-0.017c-0.368 18.683-15.598 33.71-34.38 33.71zM396.841 831.974c-18.783 0-34.014-15.026-34.382-33.708h-0.017v-733.82h68.798v733.819h-0.017c-0.367 18.683-15.597 33.709-34.38 33.709zM626.17 625.588c-18.783 0-34.015-15.026-34.384-33.709h-0.017v-527.432h68.801v527.432h-0.017c-0.366 18.682-15.6 33.709-34.381 33.709z" />
<glyph unicode="&#xe91e;" glyph-name="prev" d="M128 857.6v-825.6c0-17.673 14.327-32 32-32s32 14.327 32 32v825.6c0 17.673-14.327 32-32 32s-32-14.327-32-32v0zM774.028 816.205v0l-404.353-331.090c-27.382-22.421-27.435-58.886 0-81.35l404.353-331.090c27.382-22.421 49.676-12.003 49.676 23.365v696.799c0 35.646-22.241 45.83-49.676 23.365v0zM733.482 865.723v0c69.12 56.596 154.222 16.896 154.222-72.883v-696.799c0-89.482-85.14-129.448-154.222-72.883l-404.353 331.090c-58.7 48.064-58.662 132.353 0 180.386l404.353 331.090z" />
<glyph unicode="&#xe91f;" glyph-name="search" d="M950.149 51.803l-270.272 271.924c50.381 60.328 80.712 137.98 80.712 222.725 0 192.032-155.672 347.704-347.719 347.704-192.032 0-347.704-155.671-347.704-347.704s155.673-347.704 347.704-347.704c87.265 0 167.016 32.148 228.067 85.239l269.864-271.526c10.864-10.865 28.482-10.865 39.348 0 10.853 10.866 10.853 28.476 0 39.342zM412.87 253.921c-161.554 0-292.531 130.971-292.531 292.533 0 161.56 130.977 292.534 292.531 292.534 161.58 0 292.56-130.973 292.56-292.534s-130.981-292.533-292.56-292.533z" />
<glyph unicode="&#xe920;" glyph-name="share" d="M544 928h-384s-128 0-128-128v-704s0-128 128-128h704c64 0 128 32.128 128 128v384h-64v-384s0-64-64-64h-704s-64 0-64 64v704s0 64 64 64h384zM878.208 816.064c-193.28-17.472-569.152-122.368-679.488-662.080l62.656-12.8c99.328 485.696 419.84 590.848 600.192 610.624l-50.048-50.048 45.248-45.248 135.744 135.744-135.744 135.744-45.248-45.248 66.688-66.688z" />
<glyph unicode="&#xe921;" glyph-name="singer" d="M679.444 811.725c-37.548 52.787-98.498 86.806-167.393 86.806-113.108 0-204.8-91.692-204.8-204.8s91.692-204.8 204.8-204.8c113.108 0 204.8 91.692 204.8 204.8 0 12.999-1.211 25.715-3.526 38.041-1.608 8.348-9.943 15.529-19.954 15.529-11.315 0-20.487-9.172-20.487-20.487 0-1.303 0.122-2.578 0.354-3.814 1.677-8.726 2.648-18.909 2.648-29.319 0-90.486-73.354-163.84-163.84-163.84s-163.84 73.354-163.84 163.84c0 90.486 73.354 163.84 163.84 163.84 55.128 0 103.897-27.227 133.593-68.968 4.097-5.775 10.188-9.171 17.073-9.171 11.313 0 20.484 9.171 20.484 20.484 0 4.429-1.405 8.529-3.795 11.88zM880.64 79.36c0 0.001 0 0.001 0 0.002 0 203.594-165.046 368.64-368.64 368.64-96.175 0-183.748-36.829-249.384-97.154-3.82-3.516-6.372-8.887-6.372-14.853 0-11.312 9.17-20.481 20.481-20.481 5.345 0 10.212 2.048 13.859 5.401 57.863 53.383 135.498 86.126 220.78 86.126 0.223 0 0.447 0 0.67-0.001 180.938 0 327.646-146.707 327.646-327.68 0-11.311 9.169-20.48 20.48-20.48s20.48 9.169 20.48 20.48zM229.376 316.109c-53.499-63.367-86.016-145.96-86.016-236.148 0-0.211 0-0.423 0.001-0.634 0-11.278 9.169-20.447 20.48-20.447s20.48 9.169 20.48 20.48c0 78.070 27.361 151.839 76.472 210.412 2.982 3.534 4.794 8.14 4.794 13.169 0 11.312-9.17 20.482-20.482 20.482-6.283 0-11.905-2.829-15.662-7.283zM491.52 284.16v-81.92c0-11.264 9.216-20.48 20.48-20.48 11.469 0 20.48 9.052 20.48 20.48v81.92c0 11.264-9.216 20.48-20.48 20.48-11.469 0-20.48-9.052-20.48-20.48zM450.56 284.16c0 33.915 27.279 61.44 61.44 61.44 33.915 0 61.44-27.607 61.44-61.44v-81.92c0-33.915-27.279-61.44-61.44-61.44-33.915 0-61.44 27.607-61.44 61.44v81.92zM491.52 161.28v-81.92c0-11.311 9.169-20.48 20.48-20.48s20.48 9.169 20.48 20.48v81.92c0 11.311-9.169 20.48-20.48 20.48s-20.48-9.169-20.48-20.48z" />
<glyph unicode="&#xe922;" glyph-name="start" d="M511.493 956.093c-280.612 0-508.093-227.48-508.093-508.093s227.481-508.093 508.093-508.093c280.613 0 508.093 227.481 508.093 508.093s-227.481 508.093-508.093 508.093zM511.493-32.192c-265.201 0-480.19 214.989-480.19 480.192s214.988 480.191 480.19 480.191c265.202 0 480.191-214.988 480.191-480.191s-214.988-480.192-480.191-480.192zM733.648 448l-334.060-192.871v385.74l167.029-96.434z" />
<glyph unicode="&#xe923;" glyph-name="stop" d="M512 960c-282.784 0-512-229.216-512-512 0-282.768 229.216-512 512-512 282.752 0 512 229.232 512 512 0 282.784-229.248 512-512 512zM512-32c-265.104 0-480 214.912-480 480 0 265.104 214.896 480 480 480 265.056 0 480-214.896 480-480 0-265.088-214.944-480-480-480zM371.008 640c-8.848 0-16-7.168-16-16v-352c0-8.848 7.152-16 16-16s16 7.152 16 16v352c0 8.832-7.168 16-16 16zM652.992 640c-8.848 0-16-7.168-16-16v-352c0-8.848 7.152-16 16-16s16 7.152 16 16v352c0 8.832-7.152 16-16 16z" />
<glyph unicode="&#xe924;" glyph-name="time" d="M511.998 959.976c-282.771 0-511.994-229.219-511.994-511.976 0-282.759 229.225-511.975 511.994-511.975s511.997 229.216 511.997 511.975c0 282.758-229.228 511.976-511.997 511.976zM511.998-17.433c-257.066 0-465.451 208.398-465.451 465.432 0 257.080 208.385 465.432 465.451 465.432s465.451-208.354 465.451-465.432c0-257.032-208.385-465.432-465.451-465.432zM767.997 447.998h-232.728v302.532c0 12.862-10.429 23.271-23.271 23.271-12.84 0-23.273-10.408-23.273-23.271v-325.801c0-12.841 10.433-23.272 23.273-23.272h255.999c12.84 0 23.273 10.431 23.273 23.272-0.002 12.86-10.433 23.269-23.273 23.269z" />
<glyph unicode="&#xe925;" glyph-name="trumpet" horiz-adv-x="1103" d="M567.443 877.845c-11.553 5.682-25.262 4.13-35.334-4.031-0.472-0.396-49.447-40.14-103.508-80.776-94.043-70.733-121.427-82.527-126.985-84.41h-133.25c-0.674 0-1.314-0.099-1.987-0.099h-60.158c-15.157 0-27.452-12.554-27.452-28.049v-447.654c0-15.494 12.294-28.049 27.452-28.049h217.188c5.457-2.015 31.325-14.239 114.758-83.716 48.537-40.404 92.123-79.884 92.561-80.28 6.231-5.649 14.181-8.623 22.197-8.623 4.615 0 9.297 0.991 13.675 3.006 11.991 5.517 19.705 17.675 19.705 31.121v780.834c0.034 13.116-7.309 25.042-18.863 30.725v0 0zM531.773 120.665c-14.787 12.752-31.292 26.793-48.2 40.735-111.424 92.141-138.976 99.871-157.67 99.871-0.371 0-0.707-0.099-1.078-0.099s-0.707 0.099-1.078 0.099h-166.731c-19.233 0-23.679 5.55-23.679 25.273v343.554c0 13.38 1.549 21.772 17.347 21.772h151.776c18.189 0 46.146 7.632 168.011 98.781 21.726 16.254 42.946 32.575 61.303 46.913v-676.899zM860.048 456.885c0 86.954-46.179 162.807-114.826 203.608-3.099 1.685-10.475 4.923-15.595 4.923-15.225 0-27.586-12.62-27.586-28.181 0-10.44 5.457-19.756 13.709-24.613v0c53.051-30.791 88.89-88.969 88.89-155.737 0-67.958-37.051-127.028-91.685-157.389v0c-7.949-4.956-13.204-13.942-13.204-24.15 0-15.561 12.362-28.181 27.586-28.181 6.467-0.066 14.147 3.832 14.147 3.832 70.734 40.272 118.564 117.348 118.564 205.888v0 0zM828.217 803.775c-5.12 3.139-10.24 5.682-16.437 5.682-15.157 0-27.452-12.554-27.452-28.049 0-11.167 6.501-20.12 15.663-25.24 100.813-60.062 168.617-171.562 168.617-299.35 0-127.689-67.703-239.123-168.415-299.218-8.825-4.89-16.437-14.173-16.437-25.637 0-15.494 12.294-28.049 27.452-28.049 6.097 0 10.947 2.379 16.235 5.517 116.981 69.708 195.665 199.115 195.665 347.386 0 148.007-78.347 277.149-194.89 346.957v0 0z" />
<glyph unicode="&#xe926;" glyph-name="user" d="M512.064 956.16c-165.12 0-299.008-133.824-299.008-298.944 0-117.504 67.84-219.2 166.464-268.032-184.768-54.656-319.168-220.736-319.168-417.088 0-10.816-0.576-6.656 0.256-17.28 0 0 4.032-13.824 26.432-14.848s28.224 14.528 28.224 14.528c-0.896 10.624-0.448 6.784-0.448 17.6 0 211.84 177.792 386.176 397.12 386.176 1.984 0 3.904-0.064 5.888-0.064 5.504 0.064 14.592 0.384 26.368 1.792 149.952 16.064 266.752 143.040 266.752 297.216 0.128 165.056-133.76 298.944-298.88 298.944zM512.064 408.192c-137.472 0-248.96 111.488-248.96 248.96s111.488 248.96 248.96 248.96 248.96-111.488 248.96-248.96-111.424-248.96-248.96-248.96zM963.712-27.968c0 126.72-56 240.768-145.344 320.512-12.928 5.632-36.672 0.064-38.976-23.040-0.704-5.568 1.344-13.568 3.584-15.616 77.696-70.72 126.208-171.136 126.208-281.792 0-10.816 0.256-5.44-0.64-16.064 0 0 3.072-16.064 29.12-16.064 22.592 0 25.728 16.128 25.728 16.128 0.512 9.856 0.32 5.12 0.32 15.936z" />
<glyph unicode="&#xe927;" glyph-name="cd" d="M512-10.951c-253.070 0-458.951 205.895-458.951 458.951s205.881 458.937 458.951 458.937c253.056 0 458.951-205.881 458.951-458.937s-205.895-458.951-458.951-458.951zM512 850.048c-221.696 0-402.062-180.366-402.062-402.048 0-221.696 180.366-402.062 402.062-402.062s402.062 180.366 402.062 402.062c0 221.682-180.366 402.048-402.062 402.048zM512 341.063c-58.965 0-106.951 47.972-106.951 106.951s47.972 106.951 106.951 106.951 106.951-47.972 106.951-106.951-47.986-106.951-106.951-106.951zM512 498.062c-27.605 0-50.062-22.457-50.062-50.062s22.443-50.062 50.062-50.062c27.591 0 50.062 22.457 50.062 50.062s-22.471 50.062-50.062 50.062zM179.84 415.417c-7.552 0-13.838 7.268-14.194 14.891-0.256 5.419-0.37 11.548-0.37 17.024 0 7.865 6.357 14.549 14.222 14.549 7.851 0 14.222-6.201 14.222-14.052 0-5.035 0.114-11.307 0.341-16.284 0.356-7.865-5.689-16.142-13.54-16.142-0.242 0.014-0.469 0.014-0.683 0.014zM348.231 144.299c-2.375 0-4.779 0.583-6.997 1.835-90.965 51.612-153.259 140.060-170.951 242.66-1.337 7.751 3.854 15.104 11.591 16.427 7.822 1.351 15.104-3.854 16.427-11.591 16.228-94.18 73.429-175.346 156.942-222.734 6.827-3.854 9.23-12.558 5.362-19.385-2.603-4.622-7.41-7.211-12.373-7.211zM327.822 260.651c-3.684 0-7.367 1.422-10.14 4.252-42.212 42.951-65.451 99.74-65.451 159.943 0 7.865 6.357 14.222 14.222 14.222 7.851 0 14.222-6.357 14.222-14.222 0-52.693 20.352-102.414 57.287-140.004 5.504-5.618 5.419-14.606-0.185-20.11-2.745-2.731-6.357-4.082-9.956-4.082zM375.040 224.327c-2.375 0-4.793 0.612-6.997 1.863-4.594 2.617-9.102 5.362-13.497 8.306-6.528 4.338-8.306 13.17-3.954 19.712 4.366 6.556 13.17 8.363 19.726 3.954 3.84-2.546 7.765-4.949 11.776-7.239 6.827-3.868 9.216-12.572 5.348-19.399-2.631-4.608-7.438-7.196-12.402-7.196zM394.226 307.3c-2.375 0-4.793 0.597-6.997 1.849-35.868 20.352-58.155 58.567-58.155 99.769 0 7.865 6.357 14.222 14.222 14.222 7.851 0 14.222-6.357 14.222-14.222 0-30.976 16.754-59.719 43.733-75.008 6.827-3.868 9.216-12.558 5.348-19.385-2.617-4.636-7.438-7.225-12.373-7.225zM836.551 409.899c-0.555 0-1.124 0.028-1.678 0.1-7.808 0.91-13.383 7.993-12.473 15.787 13.397 113.792-35.556 226.532-127.744 294.229-6.329 4.636-7.694 13.54-3.058 19.868 4.636 6.315 13.554 7.694 19.883 3.044 100.437-73.742 153.771-196.537 139.164-320.484-0.839-7.225-6.983-12.544-14.094-12.544zM756.153 435.641c-0.555 0-1.109 0.028-1.678 0.1-7.808 0.91-13.369 7.993-12.459 15.787 8.42 71.41-22.3 142.18-80.171 184.661-6.329 4.636-7.694 13.54-3.058 19.868 4.636 6.315 13.54 7.694 19.883 3.044 66.105-48.526 101.191-129.351 91.577-210.916-0.839-7.225-6.983-12.544-14.094-12.544zM677.945 469.305c-0.555 0-1.109 0.028-1.678 0.1-7.808 0.91-13.369 7.993-12.459 15.787 3.627 30.805-9.628 61.326-34.588 79.659-6.329 4.636-7.694 13.54-3.058 19.868 4.651 6.315 13.554 7.68 19.883 3.044 33.195-24.377 50.816-64.939 45.995-105.899-0.839-7.239-6.983-12.558-14.094-12.558z" />
</font>
</defs>
</svg>
