<?xml version="1.0" standalone="no"?><!DOCTYPE svg PUBLIC "-//W3C//DTD SVG 1.1//EN" "http://www.w3.org/Graphics/SVG/1.1/DTD/svg11.dtd"><svg t="1490076774066" class="icon" style="" viewBox="0 0 1024 1024" version="1.1" xmlns="http://www.w3.org/2000/svg" p-id="12772" xmlns:xlink="http://www.w3.org/1999/xlink" width="16" height="16"><defs><style type="text/css"></style></defs><path d="M1024 652.294262c-1.360677 2.564817-3.154845 4.997178-3.997742 7.718532-18.146378 59.496519-52.632926 85.554092-115.332456 85.650423-131.046472 0.228786-262.080903 0.397366-393.127375-0.276952-20.229539-0.096331-35.076576 5.093509-49.827281 19.940546-75.41524 75.969144-152.155033 150.589652-228.14826 225.932643-5.53904 5.526999-9.031044 13.113076-13.438194 19.747884l-6.803386-4.852681c-1.794167-31.560489-3.88937-63.084854-5.310254-94.633302-2.047037-46.539981-4.720226-93.079962-4.936971-139.631985-0.096331-21.36143-7.537912-27.996237-28.10461-26.491063-21.01223 1.529257-42.241204 1.03556-63.289558-0.096331-51.368579-2.649106-86.818438-31.488241-101.28015-81.026529-1.204139-4.130198-3.263217-7.983443-4.912888-11.969144V114.622013c5.53904-13.907808 9.958231-28.441769 16.906115-41.615052 16.725494-31.753151 47.069802-44.733772 79.256444-54.547507h826.171966c26.647601 8.922672 54.439135 17.195108 70.49031 42.28937 10.644591 16.629163 17.303481 35.835183 25.720414 53.885231-0.036124 179.212041-0.036124 358.436124-0.036124 537.660207zM249.642145 911.557479l10.524177 6.670931c58.846284-61.567639 117.981562-122.858325 176.394355-184.883537 18.736406-19.880339 39.893133-28.562183 67.588335-28.345437 135.417498 0.903104 270.871119 0.505738 406.324742 0.325117 43.445343-0.048166 70.791345-27.478457 70.83951-70.707055 0.072248-168.206209 0.108373-336.412418-0.048165-504.618627 0-40.001505-27.177422-68.768391-65.746002-68.792474-267.186453-0.204704-534.421072-0.204704-801.64365 0C76.005268 61.218438 48.213735 89.6 48.165569 127.843462c-0.192662 170.385701-0.216745 340.771402 0.012042 511.169144 0.036124 37.605268 28.477893 65.589464 66.456444 66.275823 22.541486 0.421449 45.14318 0.036124 67.696707 0.144497 43.746378 0.144497 56.775165 12.390593 59.315898 56.606585 2.889934 49.791157 5.370461 99.702728 7.995485 149.517968z" fill="" p-id="12773"></path><path d="M260.780433 381.832549h507.930009c9.994356 35.124741 6.369897 40.410913-26.743932 40.410913-151.504798 0.024083-303.04572 0.024083-454.586642 0-33.017498 0.012041-36.714205-5.466792-26.599435-40.410913zM589.197366 527.376858v39.291063h-330.656632v-39.291063h330.656632zM258.348071 274.59191c-0.565945-7.489746-0.854939-14.558043-1.685794-21.578175-1.806209-15.376858 5.009219-19.687676 20.012794-19.567263 85.746754 0.614111 171.481468 0.710442 257.240263-0.072248 16.60508-0.144497 21.144685 5.250047 20.988147 21.180809-0.120414 15.148071-2.950141 22.035748-20.313829 21.855127-86.481279-0.818815-172.962559-0.361242-259.419755-0.445532-4.985136 0-9.958231-0.794732-16.821826-1.372718z" fill="" p-id="12774"></path></svg>