<?xml version="1.0" standalone="no"?><!DOCTYPE svg PUBLIC "-//W3C//DTD SVG 1.1//EN" "http://www.w3.org/Graphics/SVG/1.1/DTD/svg11.dtd"><svg class="icon" width="16px" height="16.00px" viewBox="0 0 1024 1024" version="1.1" xmlns="http://www.w3.org/2000/svg"><path fill="#333333" d="M512.85 1020.6c-279.78 0-507.374-227.589-507.374-507.363s227.589-507.363 507.374-507.363c279.78 0 507.363 227.589 507.363 507.363 0 279.761-227.588 507.363-507.363 507.363zM512.85 49.91c-255.478 0-463.326 207.807-463.326 463.249s207.827 463.249 463.326 463.249c255.478 0 463.249-207.827 463.249-463.249s-207.827-463.249-463.249-463.249zM437.442 692.234c-5.659 0-11.276-2.149-15.569-6.459l-141.070-141.070c-8.661-8.661-8.661-22.552 0-31.195s22.552-8.661 31.195 0l141.070 141.070c8.661 8.661 8.661 22.552 0 31.195-4.325 4.325-9.957 6.459-15.569 6.459zM437.411 692.207c-5.659 0-11.276-2.149-15.569-6.459-8.661-8.661-8.661-22.552 0-31.195l317.35-317.35c8.661-8.661 22.552-8.661 31.195 0s8.661 22.552 0 31.195l-317.35 317.35c-4.276 4.276-9.957 6.459-15.569 6.459z" /></svg>