<?xml version="1.0" standalone="no"?><!DOCTYPE svg PUBLIC "-//W3C//DTD SVG 1.1//EN" "http://www.w3.org/Graphics/SVG/1.1/DTD/svg11.dtd"><svg t="1489983404865" class="icon" style="" viewBox="0 0 1024 1024" version="1.1" xmlns="http://www.w3.org/2000/svg" p-id="12009" xmlns:xlink="http://www.w3.org/1999/xlink" width="16" height="16"><defs><style type="text/css"></style></defs><path d="M142.150534 909.042805c-6.54916 0-13.098319-2.498914-18.0941-7.497765-9.988492-9.992585-9.984399-26.190499 0.00921-36.177967l737.14476-736.781486c9.993608-9.988492 26.191522-9.984399 36.177967 0.00921 9.988492 9.993608 9.984399 26.191522-0.008186 36.178991l-737.14476 736.780463C155.240667 906.546961 148.6956 909.042805 142.150534 909.042805z" p-id="12010"></path><path d="M878.929973 909.042805c-6.545066 0-13.08911-2.494821-18.08489-7.487531l-737.185692-736.780463c-9.993608-9.988492-9.997702-26.186406-0.010233-36.178991 9.988492-9.993608 26.186406-9.997702 36.178991-0.010233l737.185692 736.780463c9.993608 9.988492 9.998725 26.186406 0.010233 36.178991C892.029316 906.542868 885.47811 909.042805 878.929973 909.042805z" p-id="12011"></path></svg>