<?xml version="1.0" standalone="no"?><!DOCTYPE svg PUBLIC "-//W3C//DTD SVG 1.1//EN" "http://www.w3.org/Graphics/SVG/1.1/DTD/svg11.dtd"><svg t="1489817252360" class="icon" style="" viewBox="0 0 1024 1024" version="1.1" xmlns="http://www.w3.org/2000/svg" p-id="4492" xmlns:xlink="http://www.w3.org/1999/xlink" width="16" height="16"><defs><style type="text/css"></style></defs><path d="M711.2 664.8L558.4 512l152.8-152.8a32 32 0 1 0-45.6-45.6L512.8 466.4 360 313.6a32 32 0 0 0-45.6 45.6L467.2 512 313.6 664.8a32 32 0 1 0 45.6 45.6L512 557.6l152.8 152.8a32 32 0 0 0 45.6 0 32.64 32.64 0 0 0 0.8-45.6z" p-id="4493"></path><path d="M512 0a512 512 0 1 0 512 512A512.48 512.48 0 0 0 512 0z m0 967.2A455.2 455.2 0 1 1 968 512a456 456 0 0 1-456 455.2z" p-id="4494"></path></svg>