<?xml version="1.0" standalone="no"?><!DOCTYPE svg PUBLIC "-//W3C//DTD SVG 1.1//EN" "http://www.w3.org/Graphics/SVG/1.1/DTD/svg11.dtd"><svg t="1493713047482" class="icon" style="" viewBox="0 0 1024 1024" version="1.1" xmlns="http://www.w3.org/2000/svg" p-id="1437" xmlns:xlink="http://www.w3.org/1999/xlink" width="16" height="16"><defs><style type="text/css"></style></defs><path d="M821.76 727.04c-104.96 107.52-225.28 215.04-271.36 256-10.24 10.24-23.04 15.36-38.4 15.36-12.8 0-25.6-5.12-38.4-15.36C353.28 875.52 64 606.72 23.04 499.2-35.84 343.04 33.28 163.84 181.76 99.84c115.2-48.64 245.76-15.36 327.68 84.48 0 2.56 5.12 2.56 5.12 0 81.92-99.84 215.04-133.12 327.68-84.48 148.48 64 220.16 243.2 158.72 399.36-12.8 33.28-48.64 84.48-112.64 153.6" p-id="1438"></path></svg>