<?xml version="1.0" standalone="no"?><!DOCTYPE svg PUBLIC "-//W3C//DTD SVG 1.1//EN" "http://www.w3.org/Graphics/SVG/1.1/DTD/svg11.dtd"><svg t="1495465475136" class="icon" style="" viewBox="0 0 1024 1024" version="1.1" xmlns="http://www.w3.org/2000/svg" p-id="2416" xmlns:xlink="http://www.w3.org/1999/xlink" width="16" height="16"><defs><style type="text/css"></style></defs><path d="M510.976694 917.609924c-54.899354 0-108.172675-10.759041-158.340261-31.978319-48.440246-20.487613-91.938945-49.813522-129.285528-87.160105s-66.671469-80.845283-87.160105-129.285528c-21.219277-50.167586-31.978319-103.440907-31.978319-158.340261 0-54.899354 10.759041-108.172675 31.978319-158.340261 20.488637-48.440246 49.813522-91.938945 87.160105-129.285528s80.84426-66.671469 129.285528-87.160105c50.167586-21.219277 103.440907-31.978319 158.340261-31.978319 54.899354 0 108.172675 10.759041 158.340261 31.978319 48.440246 20.488637 91.938945 49.813522 129.285528 87.160105s66.671469 80.84426 87.160105 129.285528c21.219277 50.167586 31.978319 103.440907 31.978319 158.340261 0 54.899354-10.759041 108.172675-31.978319 158.340261-20.487613 48.440246-49.813522 91.938945-87.160105 129.285528s-80.845283 66.671469-129.285528 87.160105C619.149369 906.851906 565.876048 917.609924 510.976694 917.609924zM510.976694 165.479869c-92.25003 0-178.979324 35.924187-244.209978 101.155864-65.231677 65.230654-101.155864 151.959947-101.155864 244.209978s35.924187 178.979324 101.155864 244.209978c65.230654 65.230654 151.959947 101.155864 244.209978 101.155864s178.979324-35.924187 244.209978-101.155864 101.155864-151.959947 101.155864-244.209978-35.924187-178.979324-101.155864-244.209978C689.956018 201.404056 603.226724 165.479869 510.976694 165.479869z" p-id="2417"></path><path d="M509.10302 272.927019l30.699186 0 0 245.593488-30.699186 0 0-245.593488Z" p-id="2418"></path><path d="M508.548391 519.006961l10.499122-28.848025 245.208213 89.242534-10.499122 28.848025-245.208213-89.242534Z" p-id="2419"></path></svg>