<?xml version="1.0" standalone="no"?><!DOCTYPE svg PUBLIC "-//W3C//DTD SVG 1.1//EN" "http://www.w3.org/Graphics/SVG/1.1/DTD/svg11.dtd"><svg t="1495344527475" class="icon" style="" viewBox="0 0 1029 1024" version="1.1" xmlns="http://www.w3.org/2000/svg" p-id="13095" xmlns:xlink="http://www.w3.org/1999/xlink" width="16.078125" height="16"><defs><style type="text/css"></style></defs><path d="M512 0c-282.4 0-512 228.8-512 512 0 282.4 228.8 512 512 512 282.4 0 512-228.8 512-512C1024 229.6 795.2 0 512 0zM808 807.2c-79.2 79.2-184 122.4-295.2 122.4-112 0-216.8-43.2-295.2-122.4C137.6 728.8 94.4 624 94.4 512s43.2-216.8 122.4-295.2c79.2-79.2 184-122.4 295.2-122.4 112 0 216.8 43.2 295.2 122.4 79.2 79.2 122.4 184 122.4 295.2S886.4 728.8 808 807.2z" p-id="13096"></path><path d="M592.8 683.2c-3.2 1.6-7.2 4-10.4 6.4-8.8 6.4-17.6 12.8-27.2 18.4-4.8 3.2-11.2 4.8-17.6 4.8-7.2 0.8-12.8-8-11.2-14.4 6.4-28 12.8-56.8 20-84.8 12.8-48.8 25.6-96.8 38.4-144.8 3.2-12 4-24 1.6-35.2-1.6-9.6-5.6-17.6-15.2-20.8-8-3.2-16-2.4-23.2 0.8-12.8 6.4-25.6 12-37.6 20-27.2 19.2-53.6 39.2-80 58.4-6.4 4.8-12.8 9.6-19.2 15.2 2.4 4.8 4.8 8.8 8 12.8 1.6 2.4 6.4 3.2 8.8 1.6 7.2-5.6 15.2-11.2 23.2-16 9.6-5.6 19.2-10.4 28.8-14.4 6.4-2.4 14.4 0.8 14.4 5.6 0.8 4.8 0.8 9.6 0 13.6-9.6 40.8-20 81.6-29.6 122.4-7.2 31.2-14.4 62.4-20.8 94.4-2.4 12.8 0.8 25.6 9.6 36 8.8 11.2 24.8 16 38.4 10.4 24.8-10.4 47.2-24.8 68.8-39.2 16-10.4 32-21.6 48.8-32.8-2.4-4.8-4-8.8-6.4-12.8C600 682.4 596.8 680.8 592.8 683.2zM592 251.2c-8.8-2.4-18.4-2.4-27.2 1.6-22.4 9.6-30.4 28-32.8 49.6 0 11.2 2.4 20 8.8 28 8.8 11.2 20.8 15.2 34.4 14.4 12-0.8 22.4-5.6 30.4-13.6 16-16 21.6-34.4 13.6-56C614.4 261.6 604.8 254.4 592 251.2z" p-id="13097"></path></svg>