<?xml version="1.0" standalone="no"?><!DOCTYPE svg PUBLIC "-//W3C//DTD SVG 1.1//EN" "http://www.w3.org/Graphics/SVG/1.1/DTD/svg11.dtd"><svg t="1495339285187" class="icon" style="" viewBox="0 0 1024 1024" version="1.1" xmlns="http://www.w3.org/2000/svg" p-id="7396" xmlns:xlink="http://www.w3.org/1999/xlink" width="16" height="16"><defs><style type="text/css"></style></defs><path d="M706.422 147.238c-57.442-53.908-132.561-81.303-212.098-76.001-144.049 8.837-260.704 129.026-265.121 273.074-3.535 95.443 41.536 185.584 119.306 240.377 2.652 4.419 14.141 24.745 47.722 107.814 9.722 24.745 33.582 40.653 60.978 40.653 0 0 0 0 0 0h111.35c26.511 0 50.373-15.907 60.978-40.653 34.465-84.838 45.955-104.281 48.606-108.7 74.235-53.025 118.42-139.63 118.42-230.655-0.885-76.884-33.582-152.003-90.142-205.91zM649.863 550.223c-6.188 4.419-15.023 10.605-62.745 127.26-3.535 7.954-10.605 13.257-19.442 13.257h-111.35c0 0 0 0 0 0-8.837 0-16.791-5.302-19.442-13.257-46.837-115.769-55.675-121.956-61.862-126.374-66.281-46.837-104.281-123.723-101.631-205.028 4.419-121.956 102.513-223.586 223.586-230.655 5.302 0 10.605-0.885 15.023-0.885 60.978 0 119.306 22.976 163.492 64.513 48.606 45.955 75.117 107.814 75.117 174.096 0.885 78.651-37.117 152.003-100.746 197.074z" p-id="7397"></path><path d="M610.979 742.877h-197.074c-12.372 0-22.095 9.722-22.095 22.095s9.722 22.095 22.095 22.095h197.074c12.372 0 22.095-9.722 22.095-22.095s-9.722-22.095-22.095-22.095z" p-id="7398"></path><path d="M601.258 795.901h-178.515c-12.372 0-22.095 9.722-22.095 22.095s9.722 22.095 22.095 22.095h178.515c12.372 0 22.095-9.722 22.095-22.095s-9.722-22.095-22.095-22.095z" p-id="7399"></path><path d="M567.675 848.043h-111.35c-12.372 0-22.095 9.722-22.095 22.095s9.722 22.095 22.095 22.095h111.35c12.372 0 22.095-9.722 22.095-22.095s-9.722-22.095-22.095-22.095z" p-id="7400"></path><path d="M473.999 206.449c-65.396 15.023-115.769 66.281-129.026 131.676-2.652 12.372 5.302 23.861 16.791 26.511 1.767 0 2.652 0.885 4.419 0.885 10.605 0 19.442-7.069 21.21-17.675 9.722-48.606 47.722-86.606 95.443-97.211 11.489-2.652 19.442-14.141 16.791-26.511s-13.257-20.326-25.629-17.675z" p-id="7401"></path></svg>