<?xml version="1.0" standalone="no"?><!DOCTYPE svg PUBLIC "-//W3C//DTD SVG 1.1//EN" "http://www.w3.org/Graphics/SVG/1.1/DTD/svg11.dtd"><svg t="1489984683103" class="icon" style="" viewBox="0 0 1024 1024" version="1.1" xmlns="http://www.w3.org/2000/svg" p-id="1667" xmlns:xlink="http://www.w3.org/1999/xlink" width="16" height="16"><defs><style type="text/css"></style></defs><path d="M889.6 921.6 889.6 96C889.6 78.32689 875.273112 64 857.6 64 839.926888 64 825.6 78.32689 825.6 96L825.6 921.6C825.6 939.273112 839.926888 953.6 857.6 953.6 875.273112 953.6 889.6 939.273112 889.6 921.6L889.6 921.6Z" p-id="1668"></path><path d="M243.571862 880.205281 243.571862 880.205281 647.924433 549.115296C675.306549 526.694406 675.359491 490.229328 647.924433 467.765088L243.571862 136.675104C216.189747 114.254214 193.896298 124.671949 193.896298 160.040589L193.896298 856.839795C193.896298 892.486135 216.136806 902.669521 243.571862 880.205281L243.571862 880.205281ZM284.117862 929.723176 284.117862 929.723176C214.998042 986.319529 129.896298 946.619538 129.896298 856.839795L129.896298 160.040589C129.896298 70.558656 215.036778 30.592573 284.117862 87.15721L688.470433 418.247194C747.16997 466.311261 747.132094 550.600138 688.470433 598.63319L284.117862 929.723176Z" p-id="1669"></path></svg>