<?xml version="1.0" standalone="no"?><!DOCTYPE svg PUBLIC "-//W3C//DTD SVG 1.1//EN" "http://www.w3.org/Graphics/SVG/1.1/DTD/svg11.dtd"><svg t="1490076709650" class="icon" style="" viewBox="0 0 1024 1024" version="1.1" xmlns="http://www.w3.org/2000/svg" p-id="11019" xmlns:xlink="http://www.w3.org/1999/xlink" width="16" height="16"><defs><style type="text/css"></style></defs><path d="M512.001023 271.50667c-40.156582 0-72.723302-32.56672-72.723302-72.732511s32.56672-72.730465 72.723302-72.730465c40.166815 0 72.721255 32.564673 72.721255 72.730465S552.166815 271.50667 512.001023 271.50667z" p-id="11020"></path><path d="M512.001023 583.000054c-40.156582 0-72.723302-32.56672-72.723302-72.732511s32.56672-72.730465 72.723302-72.730465c40.166815 0 72.721255 32.564673 72.721255 72.730465S552.166815 583.000054 512.001023 583.000054z" p-id="11021"></path><path d="M512.001023 894.490368c-40.156582 0-72.723302-32.564673-72.723302-72.730465s32.56672-72.731488 72.723302-72.731488c40.166815 0 72.721255 32.564673 72.721255 72.731488S552.166815 894.490368 512.001023 894.490368z" p-id="11022"></path></svg>