<?xml version="1.0" standalone="no"?><!DOCTYPE svg PUBLIC "-//W3C//DTD SVG 1.1//EN" "http://www.w3.org/Graphics/SVG/1.1/DTD/svg11.dtd"><svg t="1493734630238" class="icon" style="" viewBox="0 0 1024 1024" version="1.1" xmlns="http://www.w3.org/2000/svg" p-id="4078" xmlns:xlink="http://www.w3.org/1999/xlink" width="16" height="16"><defs><style type="text/css"></style></defs><path d="M830.968124 135.88483c-42.603307-42.521442-98.679463-66.776869-153.945161-66.776869-46.608527 0-89.575108 17.276479-120.892371 48.571229L430.082804 244.6193c-0.38374 0.342808-0.848321 0.605797-1.214664 0.970094-0.201591 0.201591-0.322341 0.485047-0.525979 0.688685l0.041956 0.038886L160.889829 515.713578c-12.299117 12.237719-21.259186 27.490098-26.216081 44.119847L73.8648 780.049942c-0.081864 0.564865-4.046153 17.883299-4.046153 26.703175 0 50.005904 40.640606 90.545202 90.74884 90.545202 9.973142 0 29.271674-4.732791 29.958312-4.853541l219.530902-57.655118c16.648169-4.977361 31.82073-13.957897 44.140313-26.297946l395.179364-398.134673C921.313781 338.442152 913.219429 217.916125 830.968124 135.88483zM484.520647 684.97047c-2.145873-23.384593-8.761548-46.283116-18.633383-68.00893l244.797355-244.656139c14.968923 47.25628 7.280824 96.696296-25.488511 129.509632-0.24457 0.201591-0.488117 0.322341-0.647753 0.525979l0.322341 0.322341L484.763171 704.270025C484.763171 697.837522 485.085512 691.526793 484.520647 684.97047zM452.881043 593.373309c-9.647731-15.902178-20.614503-31.193443-34.228569-44.748157-15.838733-15.817244-33.983999-28.200272-52.919257-38.616506l246.798942-246.698658c19.337417 8.598842 37.950334 20.836561 54.335513 37.202297 13.95892 13.957897 24.802896 29.573549 33.135678 45.819558L452.881043 593.373309zM341.337597 497.768881c-23.971971-9.66922-49.097208-15.172561-74.242911-15.494902l199.460798-200.8791c30.507828-29.77821 75.011414-38.353516 118.788453-27.490098L341.337597 497.768881zM177.740612 842.275145c-2.831488 0.647753-11.589966 2.873444-17.557888 3.27765-21.303188-0.242524-38.57762-17.519002-38.57762-38.799678 0.301875-4.370541 2.062985-11.81407 2.62785-14.56574l27.249621-98.718349c29.594015-0.809435 61.455677 10.680247 86.501096 35.763528 25.427112 25.408693 37.383422 57.855686 36.068474 87.754646L177.740612 842.275145zM299.603077 810.271244c-0.626263-34.714639-14.767332-70.842465-43.291992-99.32517-26.984584-27.027563-62.286602-42.564421-97.505731-43.980677l25.793456-93.338828c1.88186-6.230911 5.562692-12.338003 10.114358-17.71957 51.92972-37.161365 131.815141-26.216081 187.324386 29.29214 58.68661 58.666144 67.769476 144.600329 22.555715 195.901739-3.01466 1.537006-6.04774 3.074012-9.304923 4.044106L299.603077 810.271244zM812.760436 373.784078l-43.614333 43.936675c0-5.844102 0.688685-11.469216 0.162706-17.457604-4.532223-50.046836-27.956725-98.475825-65.827241-136.346341-42.157145-42.177612-98.153484-66.392106-153.500023-66.554812l42.886763-43.210128c21.442358-21.401426 51.382251-33.298384 84.153632-33.298384 41.673122 0 84.476997 18.834974 117.329219 51.64831 30.912034 30.827099 49.359174 69.12331 51.949162 107.860567C848.728626 316.53419 836.833715 349.7108 812.760436 373.784078z" p-id="4079"></path></svg>