<?xml version="1.0" standalone="no"?><!DOCTYPE svg PUBLIC "-//W3C//DTD SVG 1.1//EN" "http://www.w3.org/Graphics/SVG/1.1/DTD/svg11.dtd"><svg t="1493723801270" class="icon" style="" viewBox="0 0 1024 1024" version="1.1" xmlns="http://www.w3.org/2000/svg" p-id="2085" xmlns:xlink="http://www.w3.org/1999/xlink" width="16" height="16"><defs><style type="text/css"></style></defs><path d="M275.26 862.117c-1.27 0-2.601-0.111-4.187-0.351l-0.419-0.063-125.66-0.054-0.449 0.072c-1.651 0.266-3.114 0.396-4.472 0.396-15.511 0-28.129-12.618-28.129-28.127l0.307-405.75c0-15.515 12.622-28.133 28.136-28.133 1.039 0 2.154 0.077 3.409 0.234l0.358 0.045 118.183-0.274 0-1.082c104.564-10.081 184.94-95.771 187.895-201.422l0.009-0.33-0.029-0.329c-0.29-3.273-0.424-5.94-0.424-8.394 0-51.091 41.565-92.656 92.656-92.656 21.367 0 41.431 7.076 58.024 20.463 16.11 12.999 27.537 31.212 32.174 51.286l1.156 5.007 0.417-0.054c4.866 23.49 7.331 47.346 7.331 70.995 0 39.344-6.549 78.017-19.463 114.945l-2.634 7.532 196.63 0.212c1.283 0 2.631 0.115 4.247 0.363l0.316 0.048 0.32 0.013c31.594 1.241 60.347 17.926 76.915 44.63 10.591 17.066 15.4 36.7 13.91 56.78l-0.033 0.438 0.035 0.438c0.263 3.256-0.014 6.451-0.819 9.498l-0.049 0.198-73.01 322.253c-0.815 3.028-2.169 5.933-4.026 8.635l-0.221 0.322-0.176 0.35c-7.661 15.297-19.247 28.176-33.503 37.244-13.503 8.581-28.935 13.532-44.931 14.454l0-0.043-475.203-0.199-0.415 0.062C277.843 862.007 276.515 862.117 275.26 862.117zM493.397 274.799c-13.691 41.859-38.007 79.99-70.319 110.272-32.428 30.392-72.216 52.208-115.063 63.092l-4.269 1.084-0.333 356.211 446.132 0.181c1.088 0 2.271 0.089 3.618 0.271l0.754 0.102 0.755-0.1c5.381-0.717 10.436-2.56 15.023-5.478 4.651-2.954 8.534-6.848 11.446-11.442l1.543 0.866 1.767-7.364 71.493-315.561-0.228-0.067c1.447-9.031-0.372-18.32-5.253-26.188-6.331-10.209-16.838-16.71-28.623-17.895l0-0.148-5.669-0.1-238.539-0.248c-15.516 0-28.134-12.621-28.134-28.134 0-4.316 0.988-8.5 2.938-12.436l1.999-4.039-0.269-0.22c12.06-23.345 20.905-48.263 26.339-74.194l0.218 0.006 1.093-4.438c0.19-0.773 4.66-19.33 4.601-54.621-0.047-27.964-5-53.09-5.211-54.146 0 0-0.069-0.355-0.069-0.36 0-20.552-16.72-37.272-37.272-37.272-19.401 0-35.388 14.892-37.124 33.843l-0.6 0.008 0.114 5.708c0.005 0.258 0.457 26.148-4.63 52.566-1.495 7.764-3.535 15.861-6.081 24.143l-0.133-0.064L493.397 274.799zM168.556 456.578l-0.329 348.827 78.931 0.034 0.264-349.036L168.556 456.578z" p-id="2086"></path></svg>