<?xml version="1.0" standalone="no"?><!DOCTYPE svg PUBLIC "-//W3C//DTD SVG 1.1//EN" "http://www.w3.org/Graphics/SVG/1.1/DTD/svg11.dtd"><svg t="1490074535161" class="icon" style="" viewBox="0 0 1024 1024" version="1.1" xmlns="http://www.w3.org/2000/svg" p-id="10238" xmlns:xlink="http://www.w3.org/1999/xlink" width="16" height="16"><defs><style type="text/css"></style></defs><path d="M544 32H160S32 32 32 160v704s0 128 128 128h704c64 0 128-32.128 128-128V480h-64v384s0 64-64 64H160s-64 0-64-64V160s0-64 64-64h384" p-id="10239"></path><path d="M878.208 143.936c-193.28 17.472-569.152 122.368-679.488 662.08l62.656 12.8c99.328-485.696 419.84-590.848 600.192-610.624L811.52 258.24l45.248 45.248 90.496-90.496 45.248-45.248-45.248-45.248L856.768 32 811.52 77.248l66.688 66.688z" p-id="10240"></path></svg>