<?xml version="1.0" standalone="no"?><!DOCTYPE svg PUBLIC "-//W3C//DTD SVG 1.1//EN" "http://www.w3.org/Graphics/SVG/1.1/DTD/svg11.dtd"><svg t="1489983975414" class="icon" style="" viewBox="0 0 1024 1024" version="1.1" xmlns="http://www.w3.org/2000/svg" p-id="22613" xmlns:xlink="http://www.w3.org/1999/xlink" width="16" height="16"><defs><style type="text/css"></style></defs><path d="M452.923 5.337c-247.236 0-447.662 200.391-447.662 447.586 0 247.194 200.426 447.586 447.662 447.586 247.237 0 447.663-200.392 447.663-447.586 0-247.194-200.426-447.586-447.663-447.586zM452.921 881.05c-236.487 0-428.198-191.679-428.198-428.126 0-236.448 191.711-428.126 428.198-428.126s428.199 191.678 428.199 428.126c-0.001 236.447-191.712 428.126-428.199 428.126z" p-id="22614"></path><path d="M647.872 444.279l-300.089-172.115c-3.204-1.827-6.816-1.827-10.01 0-3.187 1.845-5.002 4.982-5.002 8.625l0 344.263c0 3.675 1.815 6.779 5.002 8.625 3.192 1.833 6.806 1.833 10.01 0.017l300.089-172.135c3.186-1.832 5.021-4.956 5.021-8.642 0-3.669-1.834-6.791-5.021-8.639z" p-id="22615"></path></svg>