<?xml version="1.0" standalone="no"?><!DOCTYPE svg PUBLIC "-//W3C//DTD SVG 1.1//EN" "http://www.w3.org/Graphics/SVG/1.1/DTD/svg11.dtd"><svg t="1490329457949" class="icon" style="" viewBox="0 0 1024 1024" version="1.1" xmlns="http://www.w3.org/2000/svg" p-id="2376" xmlns:xlink="http://www.w3.org/1999/xlink" width="16" height="16"><defs><style type="text/css"></style></defs><path d="M511.492952 3.906983c-280.612049 0-508.093017 227.479945-508.093017 508.093017 0 280.613072 227.480968 508.093017 508.093017 508.093017 280.613072 0 508.093017-227.480968 508.093017-508.093017C1019.584945 231.386928 792.105001 3.906983 511.492952 3.906983zM511.492952 992.19155c-265.201058 0-480.189504-214.989469-480.189504-480.19155S246.291894 31.809473 511.492952 31.809473c265.202081 0 480.190527 214.988446 480.190527 480.190527S776.695033 992.19155 511.492952 992.19155z" p-id="2377"></path><path d="M733.647611 512 566.61641 608.43433 399.587256 704.870706 399.587256 512 399.587256 319.130318 566.61641 415.564647Z" p-id="2378"></path></svg>