<?xml version="1.0" standalone="no"?><!DOCTYPE svg PUBLIC "-//W3C//DTD SVG 1.1//EN" "http://www.w3.org/Graphics/SVG/1.1/DTD/svg11.dtd"><svg t="1489983582442" class="icon" style="" viewBox="0 0 1024 1024" version="1.1" xmlns="http://www.w3.org/2000/svg" p-id="20287" xmlns:xlink="http://www.w3.org/1999/xlink" width="16" height="16"><defs><style type="text/css"></style></defs><path d="M512.064 3.84c-165.12 0-299.008 133.824-299.008 298.944 0 117.504 67.84 219.2 166.464 268.032C194.752 625.472 60.352 791.552 60.352 987.904c0 10.816-0.576 6.656 0.256 17.28 0 0 4.032 13.824 26.432 14.848 22.4 1.024 28.224-14.528 28.224-14.528-0.896-10.624-0.448-6.784-0.448-17.6 0-211.84 177.792-386.176 397.12-386.176 1.984 0 3.904 0.064 5.888 0.064 5.504-0.064 14.592-0.384 26.368-1.792 149.952-16.064 266.752-143.04 266.752-297.216 0.128-165.056-133.76-298.944-298.88-298.944z m0 547.968c-137.472 0-248.96-111.488-248.96-248.96s111.488-248.96 248.96-248.96 248.96 111.488 248.96 248.96-111.424 248.96-248.96 248.96z m0 0M963.712 987.968c0-126.72-56-240.768-145.344-320.512-12.928-5.632-36.672-0.064-38.976 23.04-0.704 5.568 1.344 13.568 3.584 15.616 77.696 70.72 126.208 171.136 126.208 281.792 0 10.816 0.256 5.44-0.64 16.064 0 0 3.072 16.064 29.12 16.064 22.592 0 25.728-16.128 25.728-16.128 0.512-9.856 0.32-5.12 0.32-15.936z m0 0" fill="" p-id="20288"></path></svg>